<svg width="261" height="261" viewBox="0 0 261 261" fill="none" xmlns="http://www.w3.org/2000/svg">
<path d="M0 40C0 17.9086 17.9086 0 40 0H90.5C112.591 0 130.5 17.9086 130.5 40V130.5H221C243.091 130.5 261 148.409 261 170.5V221C261 243.091 243.091 261 221 261H170.5C148.409 261 130.5 243.091 130.5 221V130.5H40C17.9086 130.5 0 112.591 0 90.5V40Z" fill="black"/>
<path d="M261 40C261 17.9086 243.091 0 221 0H170.5C148.409 0 130.5 17.9086 130.5 40V130.5H40C17.9086 130.5 0 148.409 0 170.5V221C0 243.091 17.9086 261 40 261H90.5C112.591 261 130.5 243.091 130.5 221V130.5H221C243.091 130.5 261 112.591 261 90.5V40Z" fill="white"/>
<path d="M196.6 233.2C191.333 233.2 186.7 232.2 182.7 230.2C178.767 228.2 175.7 225.267 173.5 221.4C171.3 217.533 170.2 212.833 170.2 207.3H178.8C178.8 213.167 180.4 217.7 183.6 220.9C186.8 224.1 191.133 225.7 196.6 225.7C201.2 225.7 204.933 224.633 207.8 222.5C210.733 220.3 212.2 217.233 212.2 213.3C212.2 210.7 211.433 208.6 209.9 207C208.433 205.333 206.467 204.033 204 203.1C201.6 202.1 198.967 201.233 196.1 200.5C193.233 199.7 190.333 198.867 187.4 198C184.533 197.067 181.867 195.933 179.4 194.6C177 193.2 175.067 191.367 173.6 189.1C172.133 186.833 171.4 183.933 171.4 180.4C171.4 176.6 172.367 173.233 174.3 170.3C176.3 167.367 179.067 165.1 182.6 163.5C186.2 161.833 190.433 161 195.3 161C200.033 161 204.267 161.867 208 163.6C211.733 165.333 214.7 167.8 216.9 171C219.1 174.133 220.267 177.9 220.4 182.3H211.7C211.633 179.5 210.867 177.067 209.4 175C207.933 172.933 205.967 171.333 203.5 170.2C201.1 169.067 198.367 168.5 195.3 168.5C190.833 168.5 187.233 169.567 184.5 171.7C181.833 173.767 180.5 176.567 180.5 180.1C180.5 182.5 181.233 184.433 182.7 185.9C184.167 187.367 186.1 188.567 188.5 189.5C190.967 190.367 193.633 191.167 196.5 191.9C199.433 192.633 202.333 193.467 205.2 194.4C208.133 195.267 210.8 196.433 213.2 197.9C215.667 199.367 217.633 201.333 219.1 203.8C220.567 206.267 221.3 209.4 221.3 213.2C221.3 217.333 220.2 220.9 218 223.9C215.867 226.9 212.933 229.2 209.2 230.8C205.467 232.4 201.267 233.2 196.6 233.2Z" fill="white"/>
<path d="M61.6 233.2C55.7333 233.2 50.6333 231.733 46.3 228.8C41.9667 225.8 38.6 221.6 36.2 216.2C33.8667 210.733 32.7 204.367 32.7 197.1C32.7 189.767 33.8667 183.4 36.2 178C38.6 172.6 41.9667 168.433 46.3 165.5C50.6333 162.5 55.7333 161 61.6 161C67.4667 161 72.5667 162.5 76.9 165.5C81.2333 168.433 84.5667 172.6 86.9 178C89.3 183.4 90.5 189.767 90.5 197.1C90.5 204.367 89.3 210.733 86.9 216.2C84.5667 221.6 81.2333 225.8 76.9 228.8C72.5667 231.733 67.4667 233.2 61.6 233.2ZM61.6 225.7C65.6 225.7 69.0667 224.533 72 222.2C75 219.867 77.3 216.567 78.9 212.3C80.5667 207.967 81.4 202.9 81.4 197.1C81.4 191.3 80.5667 186.267 78.9 182C77.3 177.733 75 174.433 72 172.1C69.0667 169.7 65.6 168.5 61.6 168.5C57.6 168.5 54.1 169.7 51.1 172.1C48.1667 174.433 45.8667 177.733 44.2 182C42.5333 186.267 41.7 191.3 41.7 197.1C41.7 202.9 42.5333 207.967 44.2 212.3C45.8667 216.567 48.1667 219.867 51.1 222.2C54.1 224.533 57.6 225.7 61.6 225.7Z" fill="black"/>
<path d="M196.6 101.2C191.333 101.2 186.7 100.2 182.7 98.2C178.767 96.2 175.7 93.2667 173.5 89.4C171.3 85.5333 170.2 80.8333 170.2 75.3H178.8C178.8 81.1667 180.4 85.7 183.6 88.9C186.8 92.1 191.133 93.7 196.6 93.7C201.2 93.7 204.933 92.6333 207.8 90.5C210.733 88.3 212.2 85.2333 212.2 81.3C212.2 78.7 211.433 76.6 209.9 75C208.433 73.3333 206.467 72.0333 204 71.1C201.6 70.1 198.967 69.2333 196.1 68.5C193.233 67.7 190.333 66.8667 187.4 66C184.533 65.0667 181.867 63.9333 179.4 62.6C177 61.2 175.067 59.3667 173.6 57.1C172.133 54.8333 171.4 51.9333 171.4 48.4C171.4 44.6 172.367 41.2333 174.3 38.3C176.3 35.3667 179.067 33.1 182.6 31.5C186.2 29.8333 190.433 29 195.3 29C200.033 29 204.267 29.8667 208 31.6C211.733 33.3333 214.7 35.8 216.9 39C219.1 42.1333 220.267 45.9 220.4 50.3H211.7C211.633 47.5 210.867 45.0667 209.4 43C207.933 40.9333 205.967 39.3333 203.5 38.2C201.1 37.0667 198.367 36.5 195.3 36.5C190.833 36.5 187.233 37.5667 184.5 39.7C181.833 41.7667 180.5 44.5667 180.5 48.1C180.5 50.5 181.233 52.4333 182.7 53.9C184.167 55.3667 186.1 56.5667 188.5 57.5C190.967 58.3667 193.633 59.1667 196.5 59.9C199.433 60.6333 202.333 61.4667 205.2 62.4C208.133 63.2667 210.8 64.4333 213.2 65.9C215.667 67.3667 217.633 69.3333 219.1 71.8C220.567 74.2667 221.3 77.4 221.3 81.2C221.3 85.3333 220.2 88.9 218 91.9C215.867 94.9 212.933 97.2 209.2 98.8C205.467 100.4 201.267 101.2 196.6 101.2Z" fill="black"/>
<path d="M38.4 100V92.5H63.5C66.8334 92.5 69.3667 91.5333 71.1 89.6C72.9 87.6 73.8 84.9 73.8 81.5V30.2H82.4V81.2C82.4 84.1333 82 86.7667 81.2 89.1C80.4 91.4333 79.2 93.4333 77.6 95.1C76 96.7 74 97.9334 71.6 98.8C69.2667 99.6 66.5334 100 63.4 100H38.4ZM46.2 30.2H81.9V37.7H46.2V30.2Z" fill="white"/>
</svg>
